<svg width="119" height="22" viewBox="0 0 119 22" fill="none" xmlns="http://www.w3.org/2000/svg">
<path d="M29.6768 15.251V17H22.8828V15.251H29.6768ZM23.5068 4.20312V17H21.3008V4.20312H23.5068ZM28.7891 9.54688V11.2695H22.8828V9.54688H28.7891ZM29.6328 4.20312V5.96094H22.8828V4.20312H29.6328ZM36.8926 15.0312V3.5H39.0195V17H37.0947L36.8926 15.0312ZM30.7051 12.3506V12.166C30.7051 11.4453 30.79 10.7891 30.96 10.1973C31.1299 9.59961 31.376 9.08691 31.6982 8.65918C32.0205 8.22559 32.4131 7.89453 32.876 7.66602C33.3389 7.43164 33.8604 7.31445 34.4404 7.31445C35.0146 7.31445 35.5186 7.42578 35.9521 7.64844C36.3857 7.87109 36.7549 8.19043 37.0596 8.60645C37.3643 9.0166 37.6074 9.50879 37.7891 10.083C37.9707 10.6514 38.0996 11.2842 38.1758 11.9814V12.5703C38.0996 13.25 37.9707 13.8711 37.7891 14.4336C37.6074 14.9961 37.3643 15.4824 37.0596 15.8926C36.7549 16.3027 36.3828 16.6191 35.9434 16.8418C35.5098 17.0645 35.0029 17.1758 34.4229 17.1758C33.8486 17.1758 33.3301 17.0557 32.8672 16.8154C32.4102 16.5752 32.0205 16.2383 31.6982 15.8047C31.376 15.3711 31.1299 14.8613 30.96 14.2754C30.79 13.6836 30.7051 13.042 30.7051 12.3506ZM32.8232 12.166V12.3506C32.8232 12.7842 32.8613 13.1885 32.9375 13.5635C33.0195 13.9385 33.1455 14.2695 33.3154 14.5566C33.4854 14.8379 33.7051 15.0605 33.9746 15.2246C34.25 15.3828 34.5781 15.4619 34.959 15.4619C35.4395 15.4619 35.835 15.3564 36.1455 15.1455C36.4561 14.9346 36.6992 14.6504 36.875 14.293C37.0566 13.9297 37.1797 13.5254 37.2441 13.0801V11.4893C37.209 11.1436 37.1357 10.8213 37.0244 10.5225C36.9189 10.2236 36.7754 9.96289 36.5938 9.74023C36.4121 9.51172 36.1865 9.33594 35.917 9.21289C35.6533 9.08398 35.3398 9.01953 34.9766 9.01953C34.5898 9.01953 34.2617 9.10156 33.9922 9.26562C33.7227 9.42969 33.5 9.65527 33.3242 9.94238C33.1543 10.2295 33.0283 10.5635 32.9463 10.9443C32.8643 11.3252 32.8232 11.7324 32.8232 12.166ZM46.9561 14.7588V7.49023H49.083V17H47.0791L46.9561 14.7588ZM47.2549 12.7812L47.9668 12.7637C47.9668 13.4023 47.8965 13.9912 47.7559 14.5303C47.6152 15.0635 47.3984 15.5293 47.1055 15.9277C46.8125 16.3203 46.4375 16.6279 45.9805 16.8506C45.5234 17.0674 44.9756 17.1758 44.3369 17.1758C43.874 17.1758 43.4492 17.1084 43.0625 16.9736C42.6758 16.8389 42.3418 16.6309 42.0605 16.3496C41.7852 16.0684 41.5713 15.7021 41.4189 15.251C41.2666 14.7998 41.1904 14.2607 41.1904 13.6338V7.49023H43.3086V13.6514C43.3086 13.9971 43.3496 14.2871 43.4316 14.5215C43.5137 14.75 43.625 14.9346 43.7656 15.0752C43.9062 15.2158 44.0703 15.3154 44.2578 15.374C44.4453 15.4326 44.6445 15.4619 44.8555 15.4619C45.459 15.4619 45.9336 15.3447 46.2793 15.1104C46.6309 14.8701 46.8799 14.5479 47.0264 14.1436C47.1787 13.7393 47.2549 13.2852 47.2549 12.7812ZM58.2412 15.2949L61.6074 17.9668L60.1748 19.2236L56.8701 16.5781L58.2412 15.2949ZM61.6338 10.25V10.9531C61.6338 11.9199 61.5078 12.7871 61.2559 13.5547C61.0039 14.3223 60.6436 14.9756 60.1748 15.5146C59.7061 16.0537 59.1465 16.4668 58.4961 16.7539C57.8457 17.0352 57.125 17.1758 56.334 17.1758C55.5488 17.1758 54.8311 17.0352 54.1807 16.7539C53.5361 16.4668 52.9766 16.0537 52.502 15.5146C52.0273 14.9756 51.6582 14.3223 51.3945 13.5547C51.1367 12.7871 51.0078 11.9199 51.0078 10.9531V10.25C51.0078 9.2832 51.1367 8.41895 51.3945 7.65723C51.6523 6.88965 52.0156 6.23633 52.4844 5.69727C52.959 5.15234 53.5186 4.73926 54.1631 4.45801C54.8135 4.1709 55.5312 4.02734 56.3164 4.02734C57.1074 4.02734 57.8281 4.1709 58.4785 4.45801C59.1348 4.73926 59.6973 5.15234 60.166 5.69727C60.6348 6.23633 60.9951 6.88965 61.2471 7.65723C61.5049 8.41895 61.6338 9.2832 61.6338 10.25ZM59.4189 10.9531V10.2324C59.4189 9.51758 59.3486 8.8877 59.208 8.34277C59.0732 7.79199 58.8711 7.33203 58.6016 6.96289C58.3379 6.58789 58.0127 6.30664 57.626 6.11914C57.2451 5.92578 56.8086 5.8291 56.3164 5.8291C55.8359 5.8291 55.4053 5.92578 55.0244 6.11914C54.6436 6.30664 54.3184 6.58789 54.0488 6.96289C53.7793 7.33203 53.5742 7.79199 53.4336 8.34277C53.293 8.8877 53.2227 9.51758 53.2227 10.2324V10.9531C53.2227 11.668 53.293 12.3008 53.4336 12.8516C53.5742 13.4023 53.7793 13.8682 54.0488 14.249C54.3242 14.624 54.6523 14.9082 55.0332 15.1016C55.4199 15.2891 55.8535 15.3828 56.334 15.3828C56.8262 15.3828 57.2627 15.2891 57.6436 15.1016C58.0244 14.9082 58.3467 14.624 58.6104 14.249C58.874 13.8682 59.0732 13.4023 59.208 12.8516C59.3486 12.3008 59.4189 11.668 59.4189 10.9531ZM69.3857 14.7588V7.49023H71.5127V17H69.5088L69.3857 14.7588ZM69.6846 12.7812L70.3965 12.7637C70.3965 13.4023 70.3262 13.9912 70.1855 14.5303C70.0449 15.0635 69.8281 15.5293 69.5352 15.9277C69.2422 16.3203 68.8672 16.6279 68.4102 16.8506C67.9531 17.0674 67.4053 17.1758 66.7666 17.1758C66.3037 17.1758 65.8789 17.1084 65.4922 16.9736C65.1055 16.8389 64.7715 16.6309 64.4902 16.3496C64.2148 16.0684 64.001 15.7021 63.8486 15.251C63.6963 14.7998 63.6201 14.2607 63.6201 13.6338V7.49023H65.7383V13.6514C65.7383 13.9971 65.7793 14.2871 65.8613 14.5215C65.9434 14.75 66.0547 14.9346 66.1953 15.0752C66.3359 15.2158 66.5 15.3154 66.6875 15.374C66.875 15.4326 67.0742 15.4619 67.2852 15.4619C67.8887 15.4619 68.3633 15.3447 68.709 15.1104C69.0605 14.8701 69.3096 14.5479 69.4561 14.1436C69.6084 13.7393 69.6846 13.2852 69.6846 12.7812ZM75.9512 7.49023V17H73.8242V7.49023H75.9512ZM73.6836 4.99414C73.6836 4.67187 73.7891 4.40527 74 4.19434C74.2168 3.97754 74.5156 3.86914 74.8965 3.86914C75.2715 3.86914 75.5674 3.97754 75.7842 4.19434C76.001 4.40527 76.1094 4.67187 76.1094 4.99414C76.1094 5.31055 76.001 5.57422 75.7842 5.78516C75.5674 5.99609 75.2715 6.10156 74.8965 6.10156C74.5156 6.10156 74.2168 5.99609 74 5.78516C73.7891 5.57422 73.6836 5.31055 73.6836 4.99414ZM85.6279 15.3125V17H78.5439V15.3125H85.6279ZM85.4346 8.80859L79.2646 17H77.8936V15.6377L84.0283 7.49023H85.4346V8.80859ZM84.6172 7.49023V9.17773H77.999V7.49023H84.6172ZM92.5186 5.9082L88.6953 17H86.3838L91.2002 4.20312H92.6768L92.5186 5.9082ZM95.7178 17L91.8857 5.9082L91.7188 4.20312H93.2041L98.0381 17H95.7178ZM95.5332 12.2539V14.0029H88.5723V12.2539H95.5332ZM101.229 9.31836V20.6562H99.1104V7.49023H101.062L101.229 9.31836ZM107.425 12.1572V12.3418C107.425 13.0332 107.343 13.6748 107.179 14.2666C107.021 14.8525 106.783 15.3652 106.467 15.8047C106.156 16.2383 105.772 16.5752 105.315 16.8154C104.858 17.0557 104.331 17.1758 103.733 17.1758C103.142 17.1758 102.623 17.0674 102.178 16.8506C101.738 16.6279 101.366 16.3145 101.062 15.9102C100.757 15.5059 100.511 15.0312 100.323 14.4863C100.142 13.9355 100.013 13.332 99.9365 12.6758V11.9639C100.013 11.2666 100.142 10.6338 100.323 10.0654C100.511 9.49707 100.757 9.00781 101.062 8.59766C101.366 8.1875 101.738 7.87109 102.178 7.64844C102.617 7.42578 103.13 7.31445 103.716 7.31445C104.313 7.31445 104.844 7.43164 105.307 7.66602C105.77 7.89453 106.159 8.22266 106.476 8.65039C106.792 9.07227 107.029 9.58203 107.188 10.1797C107.346 10.7715 107.425 11.4307 107.425 12.1572ZM105.307 12.3418V12.1572C105.307 11.7178 105.266 11.3105 105.184 10.9355C105.102 10.5547 104.973 10.2207 104.797 9.93359C104.621 9.64648 104.396 9.42383 104.12 9.26562C103.851 9.10156 103.525 9.01953 103.145 9.01953C102.77 9.01953 102.447 9.08398 102.178 9.21289C101.908 9.33594 101.683 9.50879 101.501 9.73145C101.319 9.9541 101.179 10.2148 101.079 10.5137C100.979 10.8066 100.909 11.126 100.868 11.4717V13.1768C100.938 13.5986 101.059 13.9854 101.229 14.3369C101.398 14.6885 101.639 14.9697 101.949 15.1807C102.266 15.3857 102.67 15.4883 103.162 15.4883C103.543 15.4883 103.868 15.4062 104.138 15.2422C104.407 15.0781 104.627 14.8525 104.797 14.5654C104.973 14.2725 105.102 13.9355 105.184 13.5547C105.266 13.1738 105.307 12.7695 105.307 12.3418ZM111.354 9.31836V20.6562H109.235V7.49023H111.187L111.354 9.31836ZM117.55 12.1572V12.3418C117.55 13.0332 117.468 13.6748 117.304 14.2666C117.146 14.8525 116.908 15.3652 116.592 15.8047C116.281 16.2383 115.897 16.5752 115.44 16.8154C114.983 17.0557 114.456 17.1758 113.858 17.1758C113.267 17.1758 112.748 17.0674 112.303 16.8506C111.863 16.6279 111.491 16.3145 111.187 15.9102C110.882 15.5059 110.636 15.0312 110.448 14.4863C110.267 13.9355 110.138 13.332 110.062 12.6758V11.9639C110.138 11.2666 110.267 10.6338 110.448 10.0654C110.636 9.49707 110.882 9.00781 111.187 8.59766C111.491 8.1875 111.863 7.87109 112.303 7.64844C112.742 7.42578 113.255 7.31445 113.841 7.31445C114.438 7.31445 114.969 7.43164 115.432 7.66602C115.895 7.89453 116.284 8.22266 116.601 8.65039C116.917 9.07227 117.154 9.58203 117.312 10.1797C117.471 10.7715 117.55 11.4307 117.55 12.1572ZM115.432 12.3418V12.1572C115.432 11.7178 115.391 11.3105 115.309 10.9355C115.227 10.5547 115.098 10.2207 114.922 9.93359C114.746 9.64648 114.521 9.42383 114.245 9.26562C113.976 9.10156 113.65 9.01953 113.27 9.01953C112.895 9.01953 112.572 9.08398 112.303 9.21289C112.033 9.33594 111.808 9.50879 111.626 9.73145C111.444 9.9541 111.304 10.2148 111.204 10.5137C111.104 10.8066 111.034 11.126 110.993 11.4717V13.1768C111.063 13.5986 111.184 13.9854 111.354 14.3369C111.523 14.6885 111.764 14.9697 112.074 15.1807C112.391 15.3857 112.795 15.4883 113.287 15.4883C113.668 15.4883 113.993 15.4062 114.263 15.2422C114.532 15.0781 114.752 14.8525 114.922 14.5654C115.098 14.2725 115.227 13.9355 115.309 13.5547C115.391 13.1738 115.432 12.7695 115.432 12.3418Z" fill="black"/>
<path d="M17.9518 10.9076L10.8321 3.89247C10.8174 3.87765 10.7999 3.86588 10.7806 3.85786C10.7613 3.84983 10.7406 3.8457 10.7196 3.8457C10.6987 3.8457 10.678 3.84983 10.6587 3.85786C10.6394 3.86588 10.6219 3.87765 10.6071 3.89247L5.81183 8.61747C5.78165 8.64741 5.76451 8.68805 5.76414 8.73056C5.76376 8.77307 5.78018 8.81401 5.80982 8.84447L5.81183 8.84648L6.6154 9.638L4.26094 11.9543C4.23076 11.9842 4.21362 12.0249 4.21324 12.0674C4.21287 12.1099 4.22928 12.1508 4.25893 12.1813L4.26094 12.1833L5.05446 12.9648L1.25558 16.7215H0.162723C0.0743303 16.7215 0 16.7938 0 16.8822V17.9911C0 18.0795 0.0723214 18.1518 0.160714 18.1518H7.08951C7.1317 18.1518 7.17187 18.1358 7.20201 18.1056L8.7308 16.5869L9.54241 17.3864C9.55716 17.4013 9.57469 17.413 9.59399 17.421C9.6133 17.4291 9.634 17.4332 9.65491 17.4332C9.67582 17.4332 9.69652 17.4291 9.71583 17.421C9.73513 17.413 9.75266 17.4013 9.76741 17.3864L12.1199 15.0641L12.9254 15.8576C12.9402 15.8725 12.9577 15.8842 12.977 15.8923C12.9963 15.9003 13.017 15.9044 13.0379 15.9044C13.0589 15.9044 13.0796 15.9003 13.0989 15.8923C13.1182 15.8842 13.1357 15.8725 13.1504 15.8576L17.9458 11.1326C18.0141 11.0724 18.0141 10.9719 17.9518 10.9076V10.9076ZM6.54509 16.7094H3.32679L6.02679 14.0376L7.63594 15.6226L6.54509 16.7094ZM9.65491 15.4619L6.21161 12.0688L7.58973 10.7108L11.033 14.1038L9.65491 15.4619V15.4619ZM13.04 13.9331L7.76049 8.73197L10.7196 5.81702L15.9991 11.0201L13.04 13.9331V13.9331Z" fill="black" fill-opacity="0.85"/>
</svg>
