<svg width="120" height="28" viewBox="0 0 120 28" fill="none" xmlns="http://www.w3.org/2000/svg">
<path d="M39.8121 8.4C37.4741 8.4 36.3051 10.045 36.3051 13.335C36.3051 16.625 37.4741 18.27 39.8121 18.27C42.1641 18.27 43.3401 16.625 43.3401 13.335C43.3401 10.045 42.1641 8.4 39.8121 8.4ZM39.8121 21.21C37.6001 21.21 35.8501 20.517 34.5621 19.131C33.2881 17.731 32.6511 15.799 32.6511 13.335C32.6511 10.871 33.2881 8.946 34.5621 7.56C35.8501 6.16 37.6001 5.46 39.8121 5.46C42.0241 5.46 43.7741 6.16 45.0621 7.56C46.3501 8.946 46.9941 10.871 46.9941 13.335C46.9941 14.777 46.7351 16.058 46.2171 17.178C45.6991 18.284 44.9711 19.173 44.0331 19.845C44.0191 19.845 44.0121 19.859 44.0121 19.887C44.0121 19.901 44.0261 19.908 44.0541 19.908C45.5941 20.608 46.9101 21.693 48.0021 23.163C48.1561 23.373 48.1701 23.59 48.0441 23.814C47.9181 24.038 47.7221 24.15 47.4561 24.15H45.9861C45.2161 24.15 44.6141 23.814 44.1801 23.142C43.6341 22.33 43.0811 21.805 42.5211 21.567C41.9751 21.329 41.0721 21.21 39.8121 21.21ZM52.6202 21.21C51.3882 21.21 50.4922 20.867 49.9322 20.181C49.3862 19.495 49.1132 18.319 49.1132 16.653V11.277C49.1132 10.955 49.2322 10.675 49.4702 10.437C49.7082 10.199 49.9882 10.08 50.3102 10.08H51.2342C51.5562 10.08 51.8362 10.199 52.0742 10.437C52.3122 10.675 52.4312 10.955 52.4312 11.277V16.422C52.4312 17.234 52.5362 17.794 52.7462 18.102C52.9702 18.396 53.3482 18.543 53.8802 18.543C54.3702 18.543 54.8182 18.347 55.2242 17.955C55.6302 17.549 55.8332 17.115 55.8332 16.653V11.277C55.8332 10.955 55.9522 10.675 56.1902 10.437C56.4282 10.199 56.7082 10.08 57.0302 10.08H58.0382C58.3602 10.08 58.6402 10.199 58.8782 10.437C59.1162 10.675 59.2352 10.955 59.2352 11.277V19.803C59.2352 20.125 59.1162 20.405 58.8782 20.643C58.6402 20.881 58.3602 21 58.0382 21H57.1772C56.8412 21 56.5542 20.888 56.3162 20.664C56.0922 20.426 55.9732 20.139 55.9592 19.803V19.635C55.9592 19.621 55.9522 19.614 55.9382 19.614L55.8962 19.656C54.9862 20.692 53.8942 21.21 52.6202 21.21ZM63.737 21C63.415 21 63.135 20.881 62.897 20.643C62.659 20.405 62.54 20.125 62.54 19.803V11.277C62.54 10.955 62.659 10.675 62.897 10.437C63.135 10.199 63.415 10.08 63.737 10.08H64.913C65.235 10.08 65.515 10.199 65.753 10.437C65.991 10.675 66.11 10.955 66.11 11.277V19.803C66.11 20.125 65.991 20.405 65.753 20.643C65.515 20.881 65.235 21 64.913 21H63.737ZM63.737 7.98C63.415 7.98 63.135 7.861 62.897 7.623C62.659 7.385 62.54 7.105 62.54 6.783V6.447C62.54 6.125 62.659 5.845 62.897 5.607C63.135 5.369 63.415 5.25 63.737 5.25H64.913C65.235 5.25 65.515 5.369 65.753 5.607C65.991 5.845 66.11 6.125 66.11 6.447V6.783C66.11 7.105 65.991 7.385 65.753 7.623C65.515 7.861 65.235 7.98 64.913 7.98H63.737ZM70.1538 17.703L74.3958 12.516V12.474C74.3958 12.46 74.3888 12.453 74.3748 12.453H70.5948C70.2728 12.453 69.9928 12.341 69.7548 12.117C69.5168 11.879 69.3978 11.599 69.3978 11.277C69.3978 10.955 69.5168 10.675 69.7548 10.437C69.9928 10.199 70.2728 10.08 70.5948 10.08H77.4408C77.7628 10.08 78.0428 10.199 78.2808 10.437C78.5188 10.675 78.6378 10.955 78.6378 11.277C78.6378 12.061 78.3858 12.761 77.8818 13.377L73.6398 18.564V18.606C73.6398 18.62 73.6468 18.627 73.6608 18.627H77.4408C77.7628 18.627 78.0428 18.746 78.2808 18.984C78.5188 19.208 78.6378 19.481 78.6378 19.803C78.6378 20.125 78.5188 20.405 78.2808 20.643C78.0428 20.881 77.7628 21 77.4408 21H70.5948C70.2728 21 69.9928 20.881 69.7548 20.643C69.5168 20.405 69.3978 20.125 69.3978 19.803C69.3978 19.019 69.6498 18.319 70.1538 17.703ZM87.0854 8.778L85.5524 14.805C85.5384 14.847 85.5454 14.889 85.5734 14.931C85.6154 14.959 85.6574 14.973 85.6994 14.973H88.5134C88.5554 14.973 88.5904 14.959 88.6184 14.931C88.6604 14.889 88.6744 14.847 88.6604 14.805L87.1274 8.778C87.1274 8.764 87.1204 8.757 87.1064 8.757C87.0924 8.757 87.0854 8.764 87.0854 8.778ZM81.4784 21C81.1844 21 80.9464 20.881 80.7644 20.643C80.5964 20.405 80.5614 20.146 80.6594 19.866L84.9014 6.804C85.0134 6.468 85.2094 6.195 85.4894 5.985C85.7834 5.775 86.1054 5.67 86.4554 5.67H87.8414C88.2054 5.67 88.5344 5.775 88.8284 5.985C89.1224 6.195 89.3184 6.468 89.4164 6.804L93.6374 19.866C93.7354 20.146 93.6934 20.405 93.5114 20.643C93.3434 20.881 93.1124 21 92.8184 21H91.4114C91.0614 21 90.7464 20.895 90.4664 20.685C90.1864 20.461 90.0044 20.181 89.9204 19.845L89.4164 17.85C89.4024 17.738 89.3324 17.682 89.2064 17.682H85.0064C84.8944 17.682 84.8244 17.738 84.7964 17.85L84.2924 19.845C84.2084 20.181 84.0264 20.461 83.7464 20.685C83.4664 20.895 83.1514 21 82.8014 21H81.4784ZM98.6787 14.238V16.842C98.6787 17.304 98.8887 17.731 99.3087 18.123C99.7427 18.501 100.233 18.69 100.779 18.69C101.423 18.69 101.934 18.431 102.312 17.913C102.69 17.381 102.879 16.59 102.879 15.54C102.879 13.44 102.179 12.39 100.779 12.39C100.233 12.39 99.7427 12.586 99.3087 12.978C98.8887 13.356 98.6787 13.776 98.6787 14.238ZM96.5577 25.62C96.2357 25.62 95.9557 25.501 95.7177 25.263C95.4797 25.025 95.3607 24.745 95.3607 24.423V11.277C95.3607 10.955 95.4797 10.675 95.7177 10.437C95.9557 10.199 96.2357 10.08 96.5577 10.08H97.3977C97.7337 10.08 98.0207 10.199 98.2587 10.437C98.4967 10.661 98.6227 10.941 98.6367 11.277V11.445C98.6367 11.459 98.6437 11.466 98.6577 11.466L98.6997 11.424C99.5957 10.388 100.674 9.87 101.934 9.87C103.236 9.87 104.272 10.36 105.042 11.34C105.826 12.32 106.218 13.72 106.218 15.54C106.218 17.304 105.812 18.69 105 19.698C104.202 20.706 103.18 21.21 101.934 21.21C100.772 21.21 99.7357 20.783 98.8257 19.929C98.8117 19.915 98.7977 19.908 98.7837 19.908C98.7697 19.908 98.7627 19.915 98.7627 19.929V24.423C98.7627 24.745 98.6437 25.025 98.4057 25.263C98.1677 25.501 97.8877 25.62 97.5657 25.62H96.5577ZM111.681 14.238V16.842C111.681 17.304 111.891 17.731 112.311 18.123C112.745 18.501 113.235 18.69 113.781 18.69C114.425 18.69 114.936 18.431 115.314 17.913C115.692 17.381 115.881 16.59 115.881 15.54C115.881 13.44 115.181 12.39 113.781 12.39C113.235 12.39 112.745 12.586 112.311 12.978C111.891 13.356 111.681 13.776 111.681 14.238ZM109.56 25.62C109.238 25.62 108.958 25.501 108.72 25.263C108.482 25.025 108.363 24.745 108.363 24.423V11.277C108.363 10.955 108.482 10.675 108.72 10.437C108.958 10.199 109.238 10.08 109.56 10.08H110.4C110.736 10.08 111.023 10.199 111.261 10.437C111.499 10.661 111.625 10.941 111.639 11.277V11.445C111.639 11.459 111.646 11.466 111.66 11.466L111.702 11.424C112.598 10.388 113.676 9.87 114.936 9.87C116.238 9.87 117.274 10.36 118.044 11.34C118.828 12.32 119.22 13.72 119.22 15.54C119.22 17.304 118.814 18.69 118.002 19.698C117.204 20.706 116.182 21.21 114.936 21.21C113.774 21.21 112.738 20.783 111.828 19.929C111.814 19.915 111.8 19.908 111.786 19.908C111.772 19.908 111.765 19.915 111.765 19.929V24.423C111.765 24.745 111.646 25.025 111.408 25.263C111.17 25.501 110.89 25.62 110.568 25.62H109.56Z" fill="black"/>
<path d="M24.99 12.7423C25.1989 12.6502 25.3761 12.4988 25.4998 12.3069C25.6234 12.1151 25.6881 11.8911 25.6857 11.6629C25.6834 11.4346 25.6141 11.212 25.4865 11.0228C25.3589 10.8335 25.1786 10.6858 24.9678 10.598L14.9683 6.04333C14.6644 5.90467 14.3341 5.83292 14 5.83292C13.6659 5.83292 13.3357 5.90467 13.0317 6.04333L3.03334 10.5933C2.82564 10.6843 2.64894 10.8338 2.52487 11.0236C2.40079 11.2134 2.33472 11.4352 2.33472 11.662C2.33472 11.8888 2.40079 12.1106 2.52487 12.3004C2.64894 12.4902 2.82564 12.6397 3.03334 12.7307L13.0317 17.29C13.3357 17.4287 13.6659 17.5004 14 17.5004C14.3341 17.5004 14.6644 17.4287 14.9683 17.29L24.99 12.7423Z" stroke="black" stroke-width="2" stroke-linecap="round" stroke-linejoin="round"/>
<path d="M25.6667 11.6667V18.6667" stroke="black" stroke-width="2" stroke-linecap="round" stroke-linejoin="round"/>
<path d="M7 14.5833V18.6667C7 19.5949 7.7375 20.4852 9.05025 21.1415C10.363 21.7979 12.1435 22.1667 14 22.1667C15.8565 22.1667 17.637 21.7979 18.9497 21.1415C20.2625 20.4852 21 19.5949 21 18.6667V14.5833" stroke="black" stroke-width="2" stroke-linecap="round" stroke-linejoin="round"/>
</svg>
