<svg viewBox="0 0 15 16" fill="none" xmlns="http://www.w3.org/2000/svg">
<path opacity="0.4" d="M14.2218 10.7217V5.27829C14.2218 4.51208 13.8272 3.80011 13.1774 3.3939L8.28866 0.337991C7.56779 -0.112664 6.65315 -0.112664 5.93317 0.337991L1.04442 3.3939C0.394659 3.80011 0 4.51208 0 5.27829V10.7217C0 11.4879 0.394659 12.1999 1.04442 12.6061L5.93317 15.662C6.65404 16.1127 7.56868 16.1127 8.28866 15.662L13.1774 12.6061C13.8272 12.1999 14.2218 11.4879 14.2218 10.7217Z" fill="#747A80"/>
<path d="M7.11093 10.6666C8.58365 10.6666 9.77752 9.47272 9.77752 8C9.77752 6.52728 8.58365 5.3334 7.11093 5.3334C5.63821 5.3334 4.44434 6.52728 4.44434 8C4.44434 9.47272 5.63821 10.6666 7.11093 10.6666Z" fill="#747A80"/>
</svg>
