<svg width="16" height="16" viewBox="0 0 16 16" fill="none" xmlns="http://www.w3.org/2000/svg">
<path opacity="0.4" d="M6 8.125V1.875C6 0.625 5.5 0 4.5 0H1.5C0.5 0 0 0.625 0 1.875V8.125C0 9.375 0.5 10 1.5 10H4.5C5.5 10 6 9.375 6 8.125Z" fill="#747A80"/>
<path d="M6 14.5V13.5C6 12.5 5.5 12 4.5 12H1.5C0.5 12 0 12.5 0 13.5V14.5C0 15.5 0.5 16 1.5 16H4.5C5.5 16 6 15.5 6 14.5Z" fill="#747A80"/>
<path opacity="0.4" d="M10 7.875V14.125C10 15.375 10.5 16 11.5 16H14.5C15.5 16 16 15.375 16 14.125V7.875C16 6.625 15.5 6 14.5 6H11.5C10.5 6 10 6.625 10 7.875Z" fill="#747A80"/>
<path d="M10 1.5V2.5C10 3.5 10.5 4 11.5 4H14.5C15.5 4 16 3.5 16 2.5V1.5C16 0.5 15.5 0 14.5 0H11.5C10.5 0 10 0.5 10 1.5Z" fill="#747A80"/>
</svg>
