<svg viewBox="0 0 16 12" fill="none" xmlns="http://www.w3.org/2000/svg">
<path d="M0.8 1.71429H15.2C15.4122 1.71429 15.6157 1.62398 15.7657 1.46323C15.9157 1.30249 16 1.08447 16 0.857143C16 0.629815 15.9157 0.411797 15.7657 0.251052C15.6157 0.0903061 15.4122 0 15.2 0L0.8 0C0.587827 0 0.384344 0.0903061 0.234315 0.251052C0.0842858 0.411797 0 0.629815 0 0.857143C0 1.08447 0.0842858 1.30249 0.234315 1.46323C0.384344 1.62398 0.587827 1.71429 0.8 1.71429ZM15.2 10.2857H0.8C0.587827 10.2857 0.384344 10.376 0.234315 10.5368C0.0842854 10.6975 0 10.9155 0 11.1429C0 11.3702 0.0842854 11.5882 0.234315 11.7489C0.384344 11.9097 0.587827 12 0.8 12H15.2C15.4122 12 15.6157 11.9097 15.7657 11.7489C15.9157 11.5882 16 11.3702 16 11.1429C16 10.9155 15.9157 10.6975 15.7657 10.5368C15.6157 10.376 15.4122 10.2857 15.2 10.2857ZM12.2 5H8H0.8C0.587827 5 0.384344 5.09031 0.234315 5.25105C0.0842858 5.4118 0 5.77267 0 6C0 6.22733 0.0842858 6.5882 0.234315 6.74895C0.384344 6.90969 0.587827 7 0.8 7H12.2C12.4122 7 12.6157 6.90969 12.7657 6.74895C12.9157 6.5882 13 6.22733 13 6C13 5.77267 12.9157 5.4118 12.7657 5.25105C12.6157 5.09031 12.4122 5 12.2 5Z" fill="#7A808A"/>
</svg>
