<svg viewBox="0 0 14 15" fill="none" xmlns="http://www.w3.org/2000/svg">
<path fill-rule="evenodd" clip-rule="evenodd" d="M0.562256 5.9364C0.562256 5.66026 0.786113 5.4364 1.06226 5.4364H12.9449C13.221 5.4364 13.4449 5.66026 13.4449 5.9364C13.4449 6.21254 13.221 6.4364 12.9449 6.4364H1.06226C0.786113 6.4364 0.562256 6.21254 0.562256 5.9364Z" fill="#7A808A"/>
<path fill-rule="evenodd" clip-rule="evenodd" d="M9.46143 8.54053C9.46143 8.26438 9.68528 8.04053 9.96143 8.04053H9.96652C10.2427 8.04053 10.4665 8.26438 10.4665 8.54053C10.4665 8.81667 10.2427 9.04053 9.96652 9.04053H9.96143C9.68528 9.04053 9.46143 8.81667 9.46143 8.54053Z" fill="#7A808A"/>
<path fill-rule="evenodd" clip-rule="evenodd" d="M6.50342 8.54053C6.50342 8.26438 6.72728 8.04053 7.00342 8.04053H7.00851C7.28465 8.04053 7.50851 8.26438 7.50851 8.54053C7.50851 8.81667 7.28465 9.04053 7.00851 9.04053H7.00342C6.72728 9.04053 6.50342 8.81667 6.50342 8.54053Z" fill="#7A808A"/>
<path fill-rule="evenodd" clip-rule="evenodd" d="M3.53857 8.54053C3.53857 8.26438 3.76243 8.04053 4.03857 8.04053H4.04366C4.31981 8.04053 4.54366 8.26438 4.54366 8.54053C4.54366 8.81667 4.31981 9.04053 4.04366 9.04053H4.03857C3.76243 9.04053 3.53857 8.81667 3.53857 8.54053Z" fill="#7A808A"/>
<path fill-rule="evenodd" clip-rule="evenodd" d="M9.46143 11.1309C9.46143 10.8548 9.68528 10.6309 9.96143 10.6309H9.96652C10.2427 10.6309 10.4665 10.8548 10.4665 11.1309C10.4665 11.4071 10.2427 11.6309 9.96652 11.6309H9.96143C9.68528 11.6309 9.46143 11.4071 9.46143 11.1309Z" fill="#7A808A"/>
<path fill-rule="evenodd" clip-rule="evenodd" d="M6.50342 11.1309C6.50342 10.8548 6.72728 10.6309 7.00342 10.6309H7.00851C7.28465 10.6309 7.50851 10.8548 7.50851 11.1309C7.50851 11.4071 7.28465 11.6309 7.00851 11.6309H7.00342C6.72728 11.6309 6.50342 11.4071 6.50342 11.1309Z" fill="#7A808A"/>
<path fill-rule="evenodd" clip-rule="evenodd" d="M3.53857 11.1309C3.53857 10.8548 3.76243 10.6309 4.03857 10.6309H4.04366C4.31981 10.6309 4.54366 10.8548 4.54366 11.1309C4.54366 11.4071 4.31981 11.6309 4.04366 11.6309H4.03857C3.76243 11.6309 3.53857 11.4071 3.53857 11.1309Z" fill="#7A808A"/>
<path fill-rule="evenodd" clip-rule="evenodd" d="M9.69604 0.5C9.97219 0.5 10.196 0.723858 10.196 1V3.194C10.196 3.47014 9.97219 3.694 9.69604 3.694C9.4199 3.694 9.19604 3.47014 9.19604 3.194V1C9.19604 0.723858 9.4199 0.5 9.69604 0.5Z" fill="#7A808A"/>
<path fill-rule="evenodd" clip-rule="evenodd" d="M4.31079 0.5C4.58693 0.5 4.81079 0.723858 4.81079 1V3.194C4.81079 3.47014 4.58693 3.694 4.31079 3.694C4.03465 3.694 3.81079 3.47014 3.81079 3.194V1C3.81079 0.723858 4.03465 0.5 4.31079 0.5Z" fill="#7A808A"/>
<path fill-rule="evenodd" clip-rule="evenodd" d="M1.51166 2.48673C2.17942 1.85195 3.11167 1.55322 4.18064 1.55322H9.82549C10.8971 1.55322 11.8299 1.85172 12.4965 2.48722C13.1669 3.12624 13.5032 4.04408 13.5 5.14914C13.5 5.14946 13.5 5.14978 13.5 5.1501L13 5.14857H13.5V5.14914V11.2321C13.5 12.3372 13.162 13.2561 12.4914 13.8963C11.8244 14.5332 10.8918 14.8337 9.81932 14.8337H4.18064C3.10867 14.8337 2.17535 14.527 1.50816 13.8803C0.838493 13.2313 0.5 12.3009 0.5 11.1817V5.14857C0.5 4.04268 0.840025 3.12519 1.51166 2.48673ZM2.20064 3.21151C1.7714 3.61955 1.5 4.24973 1.5 5.14857V11.1817C1.5 12.0986 1.77293 12.7443 2.20413 13.1622C2.63782 13.5826 3.29481 13.8337 4.18064 13.8337H9.81932C10.7108 13.8337 11.3685 13.5858 11.8008 13.173C12.2296 12.7637 12.5 12.1317 12.5 11.2321V5.14857L12.5 5.14703C12.5027 4.2478 12.2338 3.61831 11.8065 3.21103C11.3754 2.80003 10.7179 2.55322 9.82549 2.55322H4.18064C3.29181 2.55322 2.63374 2.7998 2.20064 3.21151Z" fill="#7A808A"/>
</svg>
