<svg viewBox="0 0 13 12" fill="none" xmlns="http://www.w3.org/2000/svg">
<path d="M7.93218 11.7623L7.01728 11.5235L6.82331 9.60767C6.6322 9.62104 6.4411 9.62725 6.25 9.62725C2.80395 9.62725 0 7.4678 0 4.81291C0 2.15802 2.80395 0 6.25 0C9.69605 0 12.5 2.15946 12.5 4.81387C12.5 6.27437 11.6658 7.62928 10.2068 8.54609L7.93218 11.7623ZM7.20551 8.5566L7.775 9.00569L7.88536 10.0816L9.44236 7.88058L9.59286 7.74012C10.7982 7.01059 11.49 5.94471 11.49 4.81578C11.49 2.71843 9.13947 1.01189 6.25 1.01189C3.36053 1.01189 1.00998 2.71843 1.00998 4.81578C1.00998 6.91312 3.36053 8.62014 6.25 8.62014C6.56957 8.62042 6.88879 8.5992 7.20551 8.5566Z" fill="#7A808A"/>
</svg>
