<svg viewBox="0 0 16 16" fill="none" xmlns="http://www.w3.org/2000/svg">
<path d="M13.7143 1.13333L13.7143 14.8667C13.7143 15.1672 13.8347 15.4555 14.049 15.6681C14.2633 15.8806 14.554 16 14.8571 16C15.1602 16 15.4509 15.8806 15.6653 15.6681C15.8796 15.4555 16 15.1672 16 14.8667L16 1.13333C16 0.832755 15.8796 0.544487 15.6653 0.331946C15.4509 0.119405 15.1602 -3.67069e-08 14.8571 -4.9956e-08C14.554 -6.32051e-08 14.2633 0.119405 14.049 0.331946C13.8347 0.544487 13.7143 0.832755 13.7143 1.13333ZM2.28572 14.8667L2.28571 1.13333C2.28571 0.832754 2.16531 0.544486 1.95098 0.331945C1.73665 0.119404 1.44596 -6.36177e-07 1.14286 -6.49426e-07C0.839751 -6.62676e-07 0.549061 0.119404 0.334734 0.331945C0.120407 0.544486 -3.64009e-08 0.832754 -4.95396e-08 1.13333L1.17479e-05 14.8667C1.17348e-05 15.1672 0.120419 15.4555 0.334746 15.6681C0.549073 15.8806 0.839761 16 1.14287 16C1.44597 16 1.73666 15.8806 1.95099 15.6681C2.16532 15.4555 2.28572 15.1672 2.28572 14.8667ZM9.34456 14.8667L9.34456 1.13333C9.34456 0.832755 9.22415 0.544487 9.00982 0.331946C8.79549 0.119405 8.5048 -1.70265e-07 8.2017 -1.83514e-07C7.8986 -1.96763e-07 7.60791 0.119405 7.39358 0.331946C7.17925 0.544487 7.05884 0.832755 7.05884 1.13333L7.05885 14.8667C7.05885 15.1672 7.17926 15.4555 7.39359 15.6681C7.60791 15.8806 7.8986 16 8.20171 16C8.50481 16 8.7955 15.8806 9.00983 15.6681C9.22415 15.4555 9.34456 15.1672 9.34456 14.8667Z" fill="#7A808A"/>
<path d="M1.14286 -6.49426e-07L14.8571 -4.9956e-08C15.1602 -3.67069e-08 15.4509 0.119405 15.6653 0.331946C15.8796 0.544487 16 0.832755 16 1.13333C16 1.43391 15.8796 1.72218 15.6653 1.93472C15.4509 2.14726 15.1602 2.26666 14.8571 2.26666L1.14286 2.26666C0.839751 2.26666 0.549061 2.14726 0.334734 1.93472C0.120407 1.72218 -6.26783e-08 1.43391 -4.95396e-08 1.13333C-3.64009e-08 0.832754 0.120407 0.544486 0.334734 0.331945C0.549061 0.119404 0.839751 -6.62676e-07 1.14286 -6.49426e-07Z" fill="#7A808A"/>
<path d="M1.14286 13.7333L14.8571 13.7333C15.1602 13.7333 15.4509 13.8527 15.6653 14.0653C15.8796 14.2778 16 14.5661 16 14.8667C16 15.1672 15.8796 15.4555 15.6653 15.6681C15.4509 15.8806 15.1602 16 14.8571 16L1.14287 16C0.839761 16 0.549073 15.8806 0.334746 15.6681C0.120419 15.4555 1.17348e-05 15.1672 1.17479e-05 14.8667C1.17611e-05 14.5661 0.120408 14.2778 0.334735 14.0653C0.549062 13.8527 0.839754 13.7333 1.14286 13.7333Z" fill="#7A808A"/>
<path d="M1.14286 6.66667L14.8571 6.66667C15.1602 6.66667 15.4509 6.78607 15.6653 6.99861C15.8796 7.21115 16 7.49942 16 7.8C16 8.10058 15.8796 8.38884 15.6653 8.60139C15.4509 8.81393 15.1602 8.93333 14.8571 8.93333L1.14286 8.93333C0.839754 8.93333 0.549062 8.81393 0.334735 8.60138C0.120409 8.38884 2.50694e-06 8.10058 2.52007e-06 7.8C2.53321e-06 7.49942 0.120409 7.21115 0.334736 6.99861C0.549062 6.78607 0.839754 6.66667 1.14286 6.66667Z" fill="#7A808A"/>
</svg>
