<svg viewBox="0 0 18 18" fill="none" xmlns="http://www.w3.org/2000/svg">
<path fill-rule="evenodd" clip-rule="evenodd" d="M4.96342 0.5L8.01776 0.500001C8.46864 0.499997 8.83234 0.499994 9.12835 0.520191C9.43272 0.540958 9.70186 0.58474 9.95671 0.690302C10.5693 0.944037 11.056 1.43072 11.3097 2.04329C11.4153 2.29814 11.459 2.56728 11.4798 2.87165C11.5 3.16766 11.5 3.53136 11.5 3.98224V4H10.5C10.5 3.52722 10.4997 3.19767 10.4821 2.93973C10.4648 2.68627 10.4325 2.53867 10.3858 2.42598C10.2336 2.05843 9.94157 1.76642 9.57403 1.61418C9.46133 1.5675 9.31373 1.53516 9.06028 1.51787C8.80233 1.50027 8.47278 1.5 8 1.5H5C4.04306 1.5 3.37565 1.50106 2.87208 1.56877C2.3829 1.63453 2.12385 1.75483 1.93934 1.93934C1.75483 2.12385 1.63453 2.3829 1.56877 2.87208C1.50106 3.37565 1.5 4.04306 1.5 5V8C1.5 8.47278 1.50027 8.80233 1.51787 9.06028C1.53516 9.31373 1.5675 9.46133 1.61418 9.57403C1.76642 9.94157 2.05843 10.2336 2.42598 10.3858C2.53867 10.4325 2.68627 10.4648 2.93973 10.4821C3.19767 10.4997 3.52722 10.5 4 10.5V11.5H3.98224C3.53136 11.5 3.16766 11.5 2.87165 11.4798C2.56728 11.459 2.29814 11.4153 2.04329 11.3097C1.43072 11.056 0.944037 10.5693 0.690302 9.95671C0.58474 9.70186 0.540958 9.43272 0.520191 9.12835C0.499994 8.83234 0.499997 8.46864 0.500001 8.01776L0.5 4.96342C0.499987 4.05169 0.499976 3.31681 0.577683 2.73883C0.65836 2.13876 0.830956 1.63351 1.23223 1.23223C1.63351 0.830956 2.13876 0.65836 2.73883 0.577683C3.31681 0.499976 4.05169 0.499987 4.96342 0.5Z" fill="#222222"/>
<path fill-rule="evenodd" clip-rule="evenodd" d="M10.9634 6.5H13.0366C13.9483 6.49999 14.6832 6.49998 15.2612 6.57768C15.8612 6.65836 16.3665 6.83096 16.7678 7.23223C17.169 7.63351 17.3416 8.13876 17.4223 8.73883C17.5 9.31681 17.5 10.0517 17.5 10.9634V13.0366C17.5 13.9483 17.5 14.6832 17.4223 15.2612C17.3416 15.8612 17.169 16.3665 16.7678 16.7678C16.3665 17.169 15.8612 17.3416 15.2612 17.4223C14.6832 17.5 13.9483 17.5 13.0366 17.5H10.9634C10.0517 17.5 9.31681 17.5 8.73883 17.4223C8.13876 17.3416 7.63351 17.169 7.23223 16.7678C6.83096 16.3665 6.65836 15.8612 6.57768 15.2612C6.49998 14.6832 6.49999 13.9483 6.5 13.0366V10.9634C6.49999 10.0517 6.49998 9.31681 6.57768 8.73883C6.65836 8.13876 6.83096 7.63351 7.23223 7.23223C7.63351 6.83096 8.13876 6.65836 8.73883 6.57768C9.31681 6.49998 10.0517 6.49999 10.9634 6.5ZM8.87208 7.56877C8.3829 7.63453 8.12385 7.75483 7.93934 7.93934C7.75483 8.12385 7.63453 8.3829 7.56877 8.87208C7.50106 9.37565 7.5 10.0431 7.5 11V13C7.5 13.9569 7.50106 14.6244 7.56877 15.1279C7.63453 15.6171 7.75483 15.8762 7.93934 16.0607C8.12385 16.2452 8.3829 16.3655 8.87208 16.4312C9.37565 16.4989 10.0431 16.5 11 16.5H13C13.9569 16.5 14.6244 16.4989 15.1279 16.4312C15.6171 16.3655 15.8762 16.2452 16.0607 16.0607C16.2452 15.8762 16.3655 15.6171 16.4312 15.1279C16.4989 14.6244 16.5 13.9569 16.5 13V11C16.5 10.0431 16.4989 9.37565 16.4312 8.87208C16.3655 8.3829 16.2452 8.12385 16.0607 7.93934C15.8762 7.75483 15.6171 7.63453 15.1279 7.56877C14.6244 7.50106 13.9569 7.5 13 7.5H11C10.0431 7.5 9.37565 7.50106 8.87208 7.56877Z" fill="#222222"/>
</svg>
