<svg viewBox="0 0 12 14" fill="none" xmlns="http://www.w3.org/2000/svg">
<path d="M3 14C5.03205 14 6.28972 13.4981 6.7266 12.0967C6.825 11.781 6.8685 11.4296 6.89062 11.0467C6.9141 10.64 6.89482 10.2312 6.85215 9.8119L9.75 9.8C10.9927 9.8 12 8.8599 12 7.7C12 7.1876 11.7602 6.69271 11.3956 6.31611C11.7812 5.93881 12 5.4621 12 4.9C12 4.3274 11.6827 3.7709 11.2353 3.3789C11.2353 3.2074 11.25 2.9092 11.25 2.8C11.25 1.5127 10.5526 0.687392 9.32812 0.306592C8.51745 0.053892 7.7775 2.38419e-07 6 2.38419e-07C2.58578 2.38419e-07 0 2.4136 0 5.6C0 7.1911 0.303975 8.09269 1.19535 9.75659C1.99147 11.2427 2.25 11.9742 2.25 13.3C2.25 13.6864 2.58578 14 3 14ZM3.72338 12.5713C3.61868 11.4534 3.2754 10.4888 2.55465 9.14341C1.75853 7.65731 1.5 6.9258 1.5 5.6C1.5 3.1864 3.41422 1.4 6 1.4C8.96272 1.4 9.75 1.645 9.75 2.8C9.6348 2.8 9.09427 2.8 9 2.8C8.58578 2.8 8.25 3.1136 8.25 3.5C8.25 3.8864 8.58578 4.2 9 4.2C9.09427 4.2 9.6348 4.2 9.75 4.2C10.0921 4.2 10.5 4.578 10.5 4.9C10.5 5.2864 10.1642 5.6 9.75 5.6C9.63923 5.6 9.09405 5.6 9 5.6C8.58578 5.6 8.25 5.9136 8.25 6.3C8.25 6.6864 8.58578 7 9 7C9.09405 7 9.63923 7 9.75 7C10.098 7 10.5 7.3703 10.5 7.7C10.5 8.0864 10.1642 8.4 9.75 8.4H6C5.96573 8.4 5.66167 8.4021 5.4141 8.6842C5.16645 8.967 5.27025 9.21619 5.2734 9.23159C5.28953 9.30859 5.31735 9.4486 5.34375 9.6467C5.40315 10.0926 5.41448 10.5462 5.39062 10.9592C5.37427 11.2427 5.33663 11.5003 5.2734 11.7033C5.11508 12.2115 4.65458 12.5244 3.72338 12.5713Z" fill="#7A808A"/>
</svg>
