<svg viewBox="0 0 16 16" fill="none" xmlns="http://www.w3.org/2000/svg">
<path d="M12.6645 16.0024H3.32884C2.79827 16.0024 2.28943 15.7916 1.91427 15.4164C1.5391 15.0413 1.32833 14.5324 1.32833 14.0019V7.33351H0.661497C0.524755 7.33241 0.391655 7.2893 0.280235 7.21002C0.168815 7.13075 0.0844625 7.01913 0.0386081 6.8903C-0.00724635 6.76147 -0.0123854 6.62166 0.0238876 6.48981C0.0601606 6.35796 0.136092 6.24045 0.241391 6.15321L7.57657 0.151697C7.69589 0.0536177 7.84556 0 8.00001 0C8.15447 0 8.30413 0.0536177 8.42345 0.151697L15.7586 6.15321C15.8644 6.24082 15.9405 6.35893 15.9766 6.49142C16.0126 6.6239 16.007 6.76429 15.9603 6.89342C15.9136 7.02255 15.8282 7.13412 15.7157 7.21288C15.6032 7.29165 15.4692 7.33378 15.3319 7.33351H14.665V14.0019C14.665 14.5324 14.4543 15.0413 14.0791 15.4164C13.7039 15.7916 13.1951 16.0024 12.6645 16.0024ZM2.38193 6.11987C2.46903 6.18188 2.53994 6.26393 2.58869 6.3591C2.63743 6.45426 2.66258 6.55975 2.662 6.66667V14.0019C2.662 14.1787 2.73226 14.3483 2.85731 14.4734C2.98237 14.5984 3.15198 14.6687 3.32884 14.6687H12.6645C12.8414 14.6687 13.011 14.5984 13.136 14.4734C13.2611 14.3483 13.3314 14.1787 13.3314 14.0019V6.66667C13.3308 6.55975 13.3559 6.45426 13.4047 6.3591C13.4534 6.26393 13.5243 6.18188 13.6114 6.11987L7.99668 1.52538L2.38193 6.11987Z" fill="#747A80"/>
<path d="M2.38193 6.11987C2.46903 6.18188 2.53994 6.26393 2.58869 6.3591C2.63743 6.45426 2.66258 6.55975 2.662 6.66667V14.0019C2.662 14.1787 2.73226 14.3483 2.85731 14.4734C2.98237 14.5984 3.15198 14.6687 3.32884 14.6687H12.6645C12.8414 14.6687 13.011 14.5984 13.136 14.4734C13.2611 14.3483 13.3314 14.1787 13.3314 14.0019V6.66667C13.3308 6.55975 13.3559 6.45426 13.4047 6.3591C13.4534 6.26393 13.5243 6.18188 13.6114 6.11987L7.99668 1.52538L2.38193 6.11987Z" fill="#747A80" fill-opacity="0.4"/>
<path d="M10 11.1429C10 9.96 9.104 9 8 9C7.448 9 6.94398 9.23998 6.58398 9.6257C6.22398 10.0114 6 10.5514 6 11.1429L6 15L10 15L10 11.1429ZM7.2 11.5714C7.2 11.1 7.56 10.7143 8 10.7143C8.44 10.7143 8.8 11.1 8.8 11.5714C8.8 12.0429 8.44 12.4286 8 12.4286C7.56 12.4286 7.2 12.0429 7.2 11.5714Z" fill="#747A80"/>
</svg>
