<svg viewBox="0 0 12 14" fill="none" xmlns="http://www.w3.org/2000/svg">
<path d="M3 0C5.03205 0 6.28972 0.501896 6.7266 1.9033C6.825 2.219 6.8685 2.5704 6.89062 2.9533C6.9141 3.36 6.89482 3.7688 6.85215 4.1881L9.75 4.2C10.9927 4.2 12 5.1401 12 6.3C12 6.8124 11.7602 7.30729 11.3956 7.68389C11.7812 8.06119 12 8.5379 12 9.1C12 9.6726 11.6827 10.2291 11.2353 10.6211C11.2353 10.7926 11.25 11.0908 11.25 11.2C11.25 12.4873 10.5526 13.3126 9.32812 13.6934C8.51745 13.9461 7.7775 14 6 14C2.58578 14 0 11.5864 0 8.4C0 6.8089 0.303975 5.90731 1.19535 4.24341C1.99147 2.75731 2.25 2.0258 2.25 0.7C2.25 0.3136 2.58578 0 3 0ZM3.72338 1.42869C3.61868 2.54659 3.2754 3.51119 2.55465 4.85659C1.75853 6.34269 1.5 7.0742 1.5 8.4C1.5 10.8136 3.41422 12.6 6 12.6C8.96272 12.6 9.75 12.355 9.75 11.2C9.6348 11.2 9.09427 11.2 9 11.2C8.58578 11.2 8.25 10.8864 8.25 10.5C8.25 10.1136 8.58578 9.8 9 9.8C9.09427 9.8 9.6348 9.8 9.75 9.8C10.0921 9.8 10.5 9.422 10.5 9.1C10.5 8.7136 10.1642 8.4 9.75 8.4C9.63923 8.4 9.09405 8.4 9 8.4C8.58578 8.4 8.25 8.0864 8.25 7.7C8.25 7.3136 8.58578 7 9 7C9.09405 7 9.63923 7 9.75 7C10.098 7 10.5 6.6297 10.5 6.3C10.5 5.9136 10.1642 5.6 9.75 5.6H6C5.96573 5.6 5.66167 5.5979 5.4141 5.3158C5.16645 5.033 5.27025 4.78381 5.2734 4.76841C5.28953 4.69141 5.31735 4.5514 5.34375 4.3533C5.40315 3.9074 5.41448 3.4538 5.39062 3.0408C5.37427 2.7573 5.33663 2.4997 5.2734 2.2967C5.11508 1.7885 4.65458 1.47559 3.72338 1.42869Z" fill="#7A808A"/>
</svg>
