<svg viewBox="0 0 13 12" fill="none" xmlns="http://www.w3.org/2000/svg">
<path d="M6 10.9143C5.93669 10.9143 5.87398 10.9019 5.81549 10.8776C5.757 10.8534 5.70388 10.8178 5.65917 10.773L1.05721 6.17105C-0.352402 4.76144 -0.352402 2.46769 1.05721 1.05808C2.4109 -0.296571 4.58075 -0.351047 6 0.898029C7.41829 -0.3496 9.58814 -0.297053 10.9428 1.05808C12.3524 2.46769 12.3524 4.76192 10.9428 6.17105L6.34083 10.773C6.29612 10.8178 6.243 10.8534 6.18451 10.8776C6.12602 10.9019 6.06331 10.9143 6 10.9143V10.9143ZM3.61417 0.964075C3.26595 0.963464 2.92103 1.03163 2.59922 1.16466C2.2774 1.29768 1.98503 1.49296 1.73887 1.73926C1.24224 2.23682 0.963318 2.91109 0.963318 3.61408C0.963318 4.31708 1.24224 4.99135 1.73887 5.4889L6 9.75003L10.2611 5.4889C10.7578 4.99135 11.0367 4.31708 11.0367 3.61408C11.0367 2.91109 10.7578 2.23682 10.2611 1.73926C9.76357 1.24264 9.0893 0.963709 8.38631 0.963709C7.68332 0.963709 7.00904 1.24264 6.51149 1.73926L6.34083 1.90992C6.2961 1.95473 6.24297 1.99028 6.18449 2.01453C6.12601 2.03878 6.06331 2.05127 6 2.05127C5.93669 2.05127 5.87399 2.03878 5.81551 2.01453C5.75703 1.99028 5.7039 1.95473 5.65917 1.90992L5.48851 1.73926C5.24255 1.49296 4.95034 1.29769 4.62869 1.16466C4.30703 1.03163 3.96225 0.963459 3.61417 0.964075V0.964075Z" fill="#7A808A"/>
</svg>
