<svg  viewBox="0 0 16 16" fill="none" xmlns="http://www.w3.org/2000/svg">
<path opacity="0.4" d="M9 2.5C9 0.833333 8.18182 -3.57639e-08 6.54545 -1.07292e-07L2.45455 -2.86111e-07C0.818182 -3.57639e-07 6.7883e-07 0.833333 6.05977e-07 2.5L1.68863e-07 12.5C9.60111e-08 14.1667 0.818182 15 2.45455 15L6.54545 15C8.18182 15 9 14.1667 9 12.5L9 2.5Z" fill="#747A80"/>
<path d="M13.3358 10.7949L15.8188 7.99511C15.8759 7.93072 15.9214 7.85313 15.9528 7.76727C16.0157 7.59648 16.0157 7.40329 15.9528 7.23251C15.9214 7.14665 15.8759 7.06928 15.8188 7.00489L13.3358 4.20509C13.0933 3.93164 12.7002 3.93164 12.4577 4.20509C12.2152 4.47853 12.2152 4.92187 12.4577 5.19531L13.8812 6.80051L4.62073 6.80051C4.27809 6.80051 4 7.11408 4 7.50046C4 7.88683 4.27809 8.20041 4.62073 8.20041L13.8812 8.20041L12.4577 9.8056C12.3368 9.94185 12.2756 10.1211 12.2756 10.3003C12.2756 10.4794 12.336 10.6587 12.4577 10.7949C12.7002 11.0684 13.0942 11.0684 13.3358 10.7949Z" fill="#747A80"/>
</svg>
