<svg width="202" height="29" viewBox="0 0 202 29" fill="none" xmlns="http://www.w3.org/2000/svg">
<path d="M5.472 23V9.368H0.096V6.2H14.736V9.368H9.36V23H5.472ZM21.3954 23.192C20.0194 23.192 18.7954 22.904 17.7234 22.328C16.6674 21.752 15.8274 20.968 15.2034 19.976C14.5954 18.968 14.2914 17.824 14.2914 16.544C14.2914 15.248 14.5954 14.104 15.2034 13.112C15.8274 12.104 16.6674 11.32 17.7234 10.76C18.7954 10.184 20.0194 9.896 21.3954 9.896C22.7554 9.896 23.9714 10.184 25.0434 10.76C26.1154 11.32 26.9554 12.096 27.5634 13.088C28.1714 14.08 28.4754 15.232 28.4754 16.544C28.4754 17.824 28.1714 18.968 27.5634 19.976C26.9554 20.968 26.1154 21.752 25.0434 22.328C23.9714 22.904 22.7554 23.192 21.3954 23.192ZM21.3954 20.12C22.0194 20.12 22.5794 19.976 23.0754 19.688C23.5714 19.4 23.9634 18.992 24.2514 18.464C24.5394 17.92 24.6834 17.28 24.6834 16.544C24.6834 15.792 24.5394 15.152 24.2514 14.624C23.9634 14.096 23.5714 13.688 23.0754 13.4C22.5794 13.112 22.0194 12.968 21.3954 12.968C20.7714 12.968 20.2114 13.112 19.7154 13.4C19.2194 13.688 18.8194 14.096 18.5154 14.624C18.2274 15.152 18.0834 15.792 18.0834 16.544C18.0834 17.28 18.2274 17.92 18.5154 18.464C18.8194 18.992 19.2194 19.4 19.7154 19.688C20.2114 19.976 20.7714 20.12 21.3954 20.12ZM38.61 23.192C37.522 23.192 36.57 22.952 35.754 22.472C34.938 21.992 34.298 21.264 33.834 20.288C33.386 19.296 33.162 18.048 33.162 16.544C33.162 15.024 33.378 13.776 33.81 12.8C34.242 11.824 34.866 11.096 35.682 10.616C36.498 10.136 37.474 9.896 38.61 9.896C39.826 9.896 40.914 10.176 41.874 10.736C42.85 11.28 43.618 12.048 44.178 13.04C44.754 14.032 45.042 15.2 45.042 16.544C45.042 17.904 44.754 19.08 44.178 20.072C43.618 21.064 42.85 21.832 41.874 22.376C40.914 22.92 39.826 23.192 38.61 23.192ZM30.978 27.656V10.088H34.554V12.728L34.482 16.568L34.722 20.384V27.656H30.978ZM37.962 20.12C38.586 20.12 39.138 19.976 39.618 19.688C40.114 19.4 40.506 18.992 40.794 18.464C41.098 17.92 41.25 17.28 41.25 16.544C41.25 15.792 41.098 15.152 40.794 14.624C40.506 14.096 40.114 13.688 39.618 13.4C39.138 13.112 38.586 12.968 37.962 12.968C37.338 12.968 36.778 13.112 36.282 13.4C35.786 13.688 35.394 14.096 35.106 14.624C34.818 15.152 34.674 15.792 34.674 16.544C34.674 17.28 34.818 17.92 35.106 18.464C35.394 18.992 35.786 19.4 36.282 19.688C36.778 19.976 37.338 20.12 37.962 20.12ZM47.5483 23V10.088H51.2923V23H47.5483ZM49.4203 8.288C48.7323 8.288 48.1723 8.088 47.7403 7.688C47.3083 7.288 47.0923 6.792 47.0923 6.2C47.0923 5.608 47.3083 5.112 47.7403 4.712C48.1723 4.312 48.7323 4.112 49.4203 4.112C50.1083 4.112 50.6683 4.304 51.1003 4.688C51.5323 5.056 51.7483 5.536 51.7483 6.128C51.7483 6.752 51.5323 7.272 51.1003 7.688C50.6843 8.088 50.1243 8.288 49.4203 8.288ZM61.0071 23.192C59.6151 23.192 58.3751 22.912 57.2871 22.352C56.1991 21.776 55.3431 20.984 54.7191 19.976C54.1111 18.968 53.8071 17.824 53.8071 16.544C53.8071 15.248 54.1111 14.104 54.7191 13.112C55.3431 12.104 56.1991 11.32 57.2871 10.76C58.3751 10.184 59.6151 9.896 61.0071 9.896C62.3671 9.896 63.5511 10.184 64.5591 10.76C65.5671 11.32 66.3111 12.128 66.7911 13.184L63.8871 14.744C63.5511 14.136 63.1271 13.688 62.6151 13.4C62.1191 13.112 61.5751 12.968 60.9831 12.968C60.3431 12.968 59.7671 13.112 59.2551 13.4C58.7431 13.688 58.3351 14.096 58.0311 14.624C57.7431 15.152 57.5991 15.792 57.5991 16.544C57.5991 17.296 57.7431 17.936 58.0311 18.464C58.3351 18.992 58.7431 19.4 59.2551 19.688C59.7671 19.976 60.3431 20.12 60.9831 20.12C61.5751 20.12 62.1191 19.984 62.6151 19.712C63.1271 19.424 63.5511 18.968 63.8871 18.344L66.7911 19.928C66.3111 20.968 65.5671 21.776 64.5591 22.352C63.5511 22.912 62.3671 23.192 61.0071 23.192ZM70.9798 23V9.368H65.6038V6.2H80.2438V9.368H74.8678V23H70.9798ZM89.3355 23V20.48L89.0955 19.928V15.416C89.0955 14.616 88.8475 13.992 88.3515 13.544C87.8715 13.096 87.1275 12.872 86.1195 12.872C85.4315 12.872 84.7515 12.984 84.0795 13.208C83.4235 13.416 82.8635 13.704 82.3995 14.072L81.0555 11.456C81.7595 10.96 82.6075 10.576 83.5995 10.304C84.5915 10.032 85.5995 9.896 86.6235 9.896C88.5915 9.896 90.1195 10.36 91.2075 11.288C92.2955 12.216 92.8395 13.664 92.8395 15.632V23H89.3355ZM85.3995 23.192C84.3915 23.192 83.5275 23.024 82.8075 22.688C82.0875 22.336 81.5355 21.864 81.1515 21.272C80.7675 20.68 80.5755 20.016 80.5755 19.28C80.5755 18.512 80.7595 17.84 81.1275 17.264C81.5115 16.688 82.1115 16.24 82.9275 15.92C83.7435 15.584 84.8075 15.416 86.1195 15.416H89.5515V17.6H86.5275C85.6475 17.6 85.0395 17.744 84.7035 18.032C84.3835 18.32 84.2235 18.68 84.2235 19.112C84.2235 19.592 84.4075 19.976 84.7755 20.264C85.1595 20.536 85.6795 20.672 86.3355 20.672C86.9595 20.672 87.5195 20.528 88.0155 20.24C88.5115 19.936 88.8715 19.496 89.0955 18.92L89.6715 20.648C89.3995 21.48 88.9035 22.112 88.1835 22.544C87.4635 22.976 86.5355 23.192 85.3995 23.192ZM104.076 9.896C105.1 9.896 106.012 10.104 106.812 10.52C107.628 10.92 108.268 11.544 108.732 12.392C109.196 13.224 109.428 14.296 109.428 15.608V23H105.684V16.184C105.684 15.144 105.452 14.376 104.988 13.88C104.54 13.384 103.9 13.136 103.068 13.136C102.476 13.136 101.94 13.264 101.46 13.52C100.996 13.76 100.628 14.136 100.356 14.648C100.1 15.16 99.972 15.816 99.972 16.616V23H96.228V10.088H99.804V13.664L99.132 12.584C99.596 11.72 100.26 11.056 101.124 10.592C101.988 10.128 102.972 9.896 104.076 9.896ZM118.988 27.848C117.772 27.848 116.596 27.696 115.46 27.392C114.34 27.104 113.404 26.664 112.652 26.072L114.14 23.384C114.684 23.832 115.372 24.184 116.204 24.44C117.052 24.712 117.884 24.848 118.7 24.848C120.028 24.848 120.988 24.552 121.58 23.96C122.188 23.368 122.492 22.488 122.492 21.32V19.376L122.732 16.136L122.684 12.872V10.088H126.236V20.84C126.236 23.24 125.612 25.008 124.364 26.144C123.116 27.28 121.324 27.848 118.988 27.848ZM118.412 22.376C117.212 22.376 116.124 22.12 115.148 21.608C114.188 21.08 113.412 20.352 112.82 19.424C112.244 18.48 111.956 17.384 111.956 16.136C111.956 14.872 112.244 13.776 112.82 12.848C113.412 11.904 114.188 11.176 115.148 10.664C116.124 10.152 117.212 9.896 118.412 9.896C119.5 9.896 120.46 10.12 121.292 10.568C122.124 11 122.772 11.68 123.236 12.608C123.7 13.52 123.932 14.696 123.932 16.136C123.932 17.56 123.7 18.736 123.236 19.664C122.772 20.576 122.124 21.256 121.292 21.704C120.46 22.152 119.5 22.376 118.412 22.376ZM119.156 19.304C119.812 19.304 120.396 19.176 120.908 18.92C121.42 18.648 121.82 18.272 122.108 17.792C122.396 17.312 122.54 16.76 122.54 16.136C122.54 15.496 122.396 14.944 122.108 14.48C121.82 14 121.42 13.632 120.908 13.376C120.396 13.104 119.812 12.968 119.156 12.968C118.5 12.968 117.916 13.104 117.404 13.376C116.892 13.632 116.484 14 116.18 14.48C115.892 14.944 115.748 15.496 115.748 16.136C115.748 16.76 115.892 17.312 116.18 17.792C116.484 18.272 116.892 18.648 117.404 18.92C117.916 19.176 118.5 19.304 119.156 19.304ZM129.72 23V5.192H133.464V23H129.72ZM143.347 23.192C141.875 23.192 140.579 22.904 139.459 22.328C138.355 21.752 137.499 20.968 136.891 19.976C136.283 18.968 135.979 17.824 135.979 16.544C135.979 15.248 136.275 14.104 136.867 13.112C137.475 12.104 138.299 11.32 139.339 10.76C140.379 10.184 141.555 9.896 142.867 9.896C144.131 9.896 145.267 10.168 146.275 10.712C147.299 11.24 148.107 12.008 148.699 13.016C149.291 14.008 149.587 15.2 149.587 16.592C149.587 16.736 149.579 16.904 149.563 17.096C149.547 17.272 149.531 17.44 149.515 17.6H139.027V15.416H147.547L146.107 16.064C146.107 15.392 145.971 14.808 145.699 14.312C145.427 13.816 145.051 13.432 144.571 13.16C144.091 12.872 143.531 12.728 142.891 12.728C142.251 12.728 141.683 12.872 141.187 13.16C140.707 13.432 140.331 13.824 140.059 14.336C139.787 14.832 139.651 15.424 139.651 16.112V16.688C139.651 17.392 139.803 18.016 140.107 18.56C140.427 19.088 140.867 19.496 141.427 19.784C142.003 20.056 142.675 20.192 143.443 20.192C144.131 20.192 144.731 20.088 145.243 19.88C145.771 19.672 146.251 19.36 146.683 18.944L148.675 21.104C148.083 21.776 147.339 22.296 146.443 22.664C145.547 23.016 144.515 23.192 143.347 23.192ZM150.136 23L157.624 6.2H161.464L168.976 23H164.896L158.752 8.168H160.288L154.12 23H150.136ZM153.88 19.4L154.912 16.448H163.552L164.608 19.4H153.88ZM178.087 23.192C176.999 23.192 176.047 22.952 175.231 22.472C174.415 21.992 173.775 21.264 173.311 20.288C172.863 19.296 172.639 18.048 172.639 16.544C172.639 15.024 172.855 13.776 173.287 12.8C173.719 11.824 174.343 11.096 175.159 10.616C175.975 10.136 176.951 9.896 178.087 9.896C179.303 9.896 180.391 10.176 181.351 10.736C182.327 11.28 183.095 12.048 183.655 13.04C184.231 14.032 184.519 15.2 184.519 16.544C184.519 17.904 184.231 19.08 183.655 20.072C183.095 21.064 182.327 21.832 181.351 22.376C180.391 22.92 179.303 23.192 178.087 23.192ZM170.455 27.656V10.088H174.031V12.728L173.959 16.568L174.199 20.384V27.656H170.455ZM177.439 20.12C178.063 20.12 178.615 19.976 179.095 19.688C179.591 19.4 179.983 18.992 180.271 18.464C180.575 17.92 180.727 17.28 180.727 16.544C180.727 15.792 180.575 15.152 180.271 14.624C179.983 14.096 179.591 13.688 179.095 13.4C178.615 13.112 178.063 12.968 177.439 12.968C176.815 12.968 176.255 13.112 175.759 13.4C175.263 13.688 174.871 14.096 174.583 14.624C174.295 15.152 174.151 15.792 174.151 16.544C174.151 17.28 174.295 17.92 174.583 18.464C174.871 18.992 175.263 19.4 175.759 19.688C176.255 19.976 176.815 20.12 177.439 20.12ZM194.657 23.192C193.569 23.192 192.617 22.952 191.801 22.472C190.985 21.992 190.345 21.264 189.881 20.288C189.433 19.296 189.209 18.048 189.209 16.544C189.209 15.024 189.425 13.776 189.857 12.8C190.289 11.824 190.913 11.096 191.729 10.616C192.545 10.136 193.521 9.896 194.657 9.896C195.873 9.896 196.961 10.176 197.921 10.736C198.897 11.28 199.665 12.048 200.225 13.04C200.801 14.032 201.089 15.2 201.089 16.544C201.089 17.904 200.801 19.08 200.225 20.072C199.665 21.064 198.897 21.832 197.921 22.376C196.961 22.92 195.873 23.192 194.657 23.192ZM187.025 27.656V10.088H190.601V12.728L190.529 16.568L190.769 20.384V27.656H187.025ZM194.009 20.12C194.633 20.12 195.185 19.976 195.665 19.688C196.161 19.4 196.553 18.992 196.841 18.464C197.145 17.92 197.297 17.28 197.297 16.544C197.297 15.792 197.145 15.152 196.841 14.624C196.553 14.096 196.161 13.688 195.665 13.4C195.185 13.112 194.633 12.968 194.009 12.968C193.385 12.968 192.825 13.112 192.329 13.4C191.833 13.688 191.441 14.096 191.153 14.624C190.865 15.152 190.721 15.792 190.721 16.544C190.721 17.28 190.865 17.92 191.153 18.464C191.441 18.992 191.833 19.4 192.329 19.688C192.825 19.976 193.385 20.12 194.009 20.12Z" fill="#747A80"/>
</svg>
