<svg viewBox="0 0 15 16" fill="none" xmlns="http://www.w3.org/2000/svg">
<path d="M7.20014 0C4.35831 0 2.40016 1.9584 2.40016 4.8C2.40016 5.188 2.40016 6.376 2.40016 6.4C2.40016 6.6576 2.27008 6.8328 1.82512 7.2C1.77464 7.2416 1.56304 7.4232 1.50016 7.4752C0.487843 8.312 -0.0103956 9.096 0.000164371 10.4C0.0108043 11.7184 1.08552 12.7848 2.40016 12.8H4.94095C4.94095 12.8 4.80015 13.2888 4.80015 13.6C4.80015 14.9256 5.87455 16 7.20014 16C8.52574 16 9.60014 14.9256 9.60014 13.6C9.60014 13.2888 9.46574 12.8 9.46574 12.8H12.0001C13.3121 12.8048 14.4017 11.724 14.4001 10.4C14.3985 9.1056 13.8993 8.308 12.9001 7.4752C12.8345 7.42 12.6025 7.2432 12.5497 7.2C12.1145 6.8368 12.0001 6.6544 12.0001 6.4C12.0001 5.4 12.0001 4.8 12.0001 4.8C12.0001 1.9584 10.0417 0 7.20014 0ZM7.20014 1.6C9.15854 1.6 10.4001 2.8416 10.4001 4.8C10.4001 4.8 10.4001 5.4 10.4001 6.4C10.4001 7.2496 10.7585 7.7856 11.5249 8.4248C11.5857 8.4752 11.8425 8.6768 11.9001 8.7248C12.5705 9.284 12.7993 9.6624 12.8001 10.4C12.8009 10.8352 12.4281 11.2016 12.0001 11.2C11.8489 11.1992 9.52014 11.1992 7.20014 11.2C4.88039 11.2008 2.57016 11.2016 2.40016 11.2C1.9536 11.1944 1.60376 10.844 1.60016 10.4C1.59424 9.664 1.82296 9.2848 2.50016 8.7248C2.55544 8.6792 2.792 8.4728 2.85016 8.4248C3.62871 7.7816 4.00015 7.2576 4.00015 6.4C4.00015 6.376 4.00015 5.188 4.00015 4.8C4.00015 2.8416 5.24199 1.6 7.20014 1.6ZM7.20014 12.8C7.64174 12.8 8.00014 13.1584 8.00014 13.6C8.00014 14.0416 7.64174 14.4 7.20014 14.4C6.75855 14.4 6.40015 14.0416 6.40015 13.6C6.40015 13.1584 6.75855 12.8 7.20014 12.8Z" fill="#7A808A"/>
</svg>
