<svg viewBox="0 0 16 16" fill="none" xmlns="http://www.w3.org/2000/svg">
<path d="M6.5 0C4.25636 0 2.4375 1.79088 2.4375 4C2.4375 6.20912 4.25636 8 6.5 8C8.74364 8 10.5625 6.20912 10.5625 4C10.5625 1.79088 8.74364 0 6.5 0ZM3.6309 9.05C1.50678 9.6216 0 11.4402 0 13.6V15.2C0 15.6418 0.363756 16 0.8125 16H12.1875C12.6362 16 13 15.6418 13 15.2V13.6C13 11.4402 11.4932 9.6216 9.3691 9.05C9.18702 9.00096 9.00811 9.0236 8.83594 9.1C8.09209 9.43008 7.30023 9.6 6.5 9.6C5.69977 9.6 4.90791 9.43008 4.16406 9.1C3.99189 9.0236 3.81298 9.00096 3.6309 9.05Z" fill="#747A80"/>
</svg>
