<svg viewBox="0 0 16 12" fill="none" xmlns="http://www.w3.org/2000/svg">
<path d="M7.04964 0.0240628C6.73284 0.0773321 6.39956 0.226632 6.07444 0.46972L0.899462 4.33813C-0.299821 5.23546 -0.299821 6.77052 0.899462 7.6671L6.07444 11.5362C7.37524 12.5086 8.79924 11.8806 8.79924 10.317V8.98007C8.92004 8.97857 9.07924 8.98082 9.12484 8.98007C9.73284 8.97182 10.1296 8.98756 10.3496 9.00407C12.0648 9.13087 12.8625 9.43473 13.7745 10.2233C13.8953 10.3275 14.5553 10.9788 14.6249 11.0433C15.1289 11.5152 15.9993 11.1724 15.9993 10.5046C15.9993 10.4108 15.9993 9.75434 15.9993 9.75434C16.0369 5.60609 14.6457 3.314 10.4744 3.00189C10.3272 2.99064 9.91125 2.99814 9.19924 3.00189C9.14964 3.00189 8.96964 3.00039 8.79924 3.00189C8.79924 2.45794 8.79924 1.85247 8.79924 1.68891C8.79924 0.516237 8.00004 -0.136496 7.04964 0.0240628ZM7.19924 1.54636L7.20004 4.49719C7.20004 4.49719 10.268 4.49643 10.3496 4.50243C13.1825 4.70051 14.2017 5.95422 14.3817 8.76549C13.3657 8.02647 12.2473 7.63482 10.4744 7.50352C10.1864 7.48177 9.76165 7.47053 9.09924 7.47953C8.94084 7.48178 7.20004 7.49828 7.20004 7.49828L7.21204 10.4664L1.89946 6.49516C1.5033 6.19881 1.5033 5.80642 1.89946 5.51006L7.19924 1.54636Z" fill="#7A808A"/>
</svg>
