<svg width="16" height="16" viewBox="0 0 16 16" fill="none" xmlns="http://www.w3.org/2000/svg">
<path d="M5.5752 0.0371818C4.4408 0.412526 3.4624 1.02476 2.6 1.86219C2.3336 2.12076 2.252 2.54448 2.4248 2.87812C3.0656 4.11342 2.3952 5.43546 0.949597 5.51136C0.595997 5.52972 0.2832 5.8033 0.2 6.1628C0.0568 6.7842 0 7.30468 0 7.98697C0 8.55999 0.0591953 9.20892 0.175195 9.78611C0.247195 10.1464 0.548 10.4059 0.9 10.4375C2.3544 10.5685 3.0744 11.7254 2.4248 13.2001C2.2808 13.5279 2.3464 13.9199 2.6 14.1651C3.4496 14.9842 4.4256 15.5622 5.5752 15.9376C5.9032 16.0443 6.2736 15.9151 6.4752 15.6248C7.3648 14.3411 8.6552 14.3369 9.5 15.6248C9.6992 15.9276 10.064 16.0735 10.4 15.9634C11.5096 15.5989 12.5432 14.9792 13.4 14.1651C13.664 13.9141 13.7336 13.5079 13.5752 13.1742C12.9096 11.7738 13.6752 10.4884 15.0496 10.4634C15.4144 10.4567 15.7392 10.2073 15.8248 9.83782C15.9632 9.23978 16 8.71931 16 7.98697C16 7.35806 15.9288 6.73832 15.8 6.13694C15.7184 5.75576 15.3992 5.48551 15.0248 5.48468C13.672 5.48217 12.9136 4.0959 13.5752 2.87812C13.7592 2.53948 13.7016 2.1241 13.4248 1.86219C12.5528 1.03643 11.4896 0.390839 10.3752 0.0371818C10.0328 -0.0712508 9.6688 0.0622096 9.4752 0.37583C8.7024 1.62781 7.2592 1.64949 6.5 0.402519C6.3056 0.082226 5.9208 -0.0770895 5.5752 0.0371818ZM10.4376 1.80881C10.984 2.04736 11.4152 2.29676 11.9104 2.68795C11.3296 4.60387 12.3144 6.59402 14.3544 7.07863C14.4048 7.42311 14.4 7.63164 14.4 7.98697C14.4 8.41152 14.4056 8.56083 14.3592 8.86777C12.328 9.30651 11.3232 11.2408 11.8888 13.2852C11.4024 13.653 11.0544 13.9082 10.444 14.1543C9.01039 12.6329 7.02001 12.5662 5.55601 14.1643C4.98481 13.9024 4.54561 13.6697 4.10161 13.2785C4.65201 11.2024 3.72161 9.40994 1.65601 8.86611C1.56401 8.48576 1.6008 7.41145 1.6536 7.08531C3.7896 6.55149 4.63121 4.58051 4.10081 2.68211C4.56961 2.31427 4.99121 2.04653 5.53921 1.81465C6.91921 3.27849 8.9912 3.42446 10.4376 1.80881ZM8 4.65058C6.2328 4.65058 4.8 6.14445 4.8 7.98697C4.8 9.83032 6.2328 11.3234 8 11.3234C9.7672 11.3234 11.2 9.83032 11.2 7.98697C11.2 6.14445 9.7672 4.65058 8 4.65058ZM8 6.31877C8.884 6.31877 9.6 7.06612 9.6 7.98697C9.6 8.90865 8.884 9.65516 8 9.65516C7.116 9.65516 6.4 8.90865 6.4 7.98697C6.4 7.06612 7.116 6.31877 8 6.31877Z" fill="#747A80"/>
<path fill-rule="evenodd" clip-rule="evenodd" d="M10.4376 1.80881C10.984 2.04736 11.4152 2.29676 11.9104 2.68795C11.3296 4.60387 12.3144 6.59402 14.3544 7.07863C14.4048 7.42311 14.4 7.63164 14.4 7.98697C14.4 8.41152 14.4056 8.56083 14.3592 8.86777C12.328 9.30651 11.3232 11.2408 11.8888 13.2852C11.4024 13.653 11.0544 13.9082 10.444 14.1543C9.01039 12.6329 7.02001 12.5662 5.55601 14.1643C4.98481 13.9024 4.54561 13.6697 4.10161 13.2785C4.65201 11.2024 3.72161 9.40994 1.65601 8.86611C1.56401 8.48576 1.6008 7.41145 1.6536 7.08531C3.7896 6.55149 4.63121 4.58051 4.10081 2.68211C4.56961 2.31427 4.99121 2.04653 5.53921 1.81465C6.91921 3.27849 8.9912 3.42446 10.4376 1.80881ZM4.8 7.98697C4.8 6.14445 6.2328 4.65058 8 4.65058C9.7672 4.65058 11.2 6.14445 11.2 7.98697C11.2 9.83032 9.7672 11.3234 8 11.3234C6.2328 11.3234 4.8 9.83032 4.8 7.98697Z" fill="#747A80" fill-opacity="0.4"/>
<path d="M8 6.31877C8.884 6.31877 9.6 7.06612 9.6 7.98697C9.6 8.90865 8.884 9.65516 8 9.65516C7.116 9.65516 6.4 8.90865 6.4 7.98697C6.4 7.06612 7.116 6.31877 8 6.31877Z" fill="#747A80" fill-opacity="0.4"/>
</svg>
