<svg viewBox="0 0 16 16" fill="none" xmlns="http://www.w3.org/2000/svg">
<path d="M0.8 2.28571H15.2C15.4122 2.28571 15.6157 2.16531 15.7657 1.95098C15.9157 1.73665 16 1.44596 16 1.14286C16 0.839753 15.9157 0.549063 15.7657 0.334735C15.6157 0.120408 15.4122 0 15.2 0L0.8 0C0.587827 0 0.384344 0.120408 0.234315 0.334735C0.0842858 0.549063 0 0.839753 0 1.14286C0 1.44596 0.0842858 1.73665 0.234315 1.95098C0.384344 2.16531 0.587827 2.28571 0.8 2.28571ZM15.2 13.7143H0.8C0.587827 13.7143 0.384344 13.8347 0.234315 14.049C0.0842854 14.2633 0 14.554 0 14.8571C0 15.1602 0.0842854 15.4509 0.234315 15.6653C0.384344 15.8796 0.587827 16 0.8 16H15.2C15.4122 16 15.6157 15.8796 15.7657 15.6653C15.9157 15.4509 16 15.1602 16 14.8571C16 14.554 15.9157 14.2633 15.7657 14.049C15.6157 13.8347 15.4122 13.7143 15.2 13.7143ZM15.2 6.66667H0.8C0.587827 6.66667 0.384344 6.78707 0.234315 7.0014C0.0842858 7.21573 0 7.6969 0 8C0 8.3031 0.0842858 8.78427 0.234315 8.9986C0.384344 9.21292 0.587827 9.33333 0.8 9.33333H15.2C15.4122 9.33333 15.6157 9.21292 15.7657 8.9986C15.9157 8.78427 16 8.3031 16 8C16 7.6969 15.9157 7.21573 15.7657 7.0014C15.6157 6.78707 15.4122 6.66667 15.2 6.66667Z" fill="#7A808A"/>
</svg>
