<svg viewBox="0 0 16 16" fill="none" xmlns="http://www.w3.org/2000/svg">
<path d="M15.9583 5.79414C15.9071 5.63559 15.8104 5.4956 15.6802 5.39163C15.5501 5.28765 15.3922 5.22429 15.2262 5.20944L10.6082 4.79009L8.78208 0.515919C8.64739 0.202693 8.34076 0 8.00007 0C7.65937 0 7.35271 0.202724 7.21808 0.5167L5.39197 4.79012L0.773199 5.20944C0.60745 5.22462 0.449802 5.28812 0.3198 5.39206C0.189798 5.49599 0.0931609 5.6358 0.0418688 5.79414C-0.0634775 6.11815 0.0338061 6.4735 0.290531 6.69751L3.78124 9.75884L2.7519 14.293C2.67659 14.6264 2.80597 14.971 3.0826 15.171C3.23126 15.2784 3.40523 15.3331 3.58064 15.3331C3.7319 15.3331 3.8819 15.2923 4.01659 15.2118L8.00007 12.8309L11.9821 15.2118C12.2735 15.3871 12.6408 15.371 12.9168 15.171C13.0519 15.0732 13.1553 14.9378 13.2141 14.7817C13.2729 14.6256 13.2845 14.4557 13.2475 14.293L12.2182 9.75884L15.7089 6.69813C15.8344 6.58846 15.925 6.44432 15.9694 6.2836C16.0137 6.12288 16.0098 5.95268 15.9583 5.79414Z" fill="#7A808A"/>
</svg>
