<svg viewBox="0 0 16 9" fill="none" xmlns="http://www.w3.org/2000/svg">
<path d="M8 0C4.10557 0 0.328446 3.73021 0.164223 3.87097C0.046921 3.98827 0 4.12903 0 4.2698C0 4.41056 0.0703814 4.55132 0.164223 4.66862C0.328446 4.83285 4.08211 8.53959 8 8.53959C11.9179 8.53959 15.6716 4.80939 15.8358 4.66862C15.9296 4.57478 16 4.41056 16 4.2698C16 4.12903 15.9296 3.98827 15.8358 3.87097C15.6716 3.70675 11.8944 0 8 0ZM8 7.41349C5.27859 7.41349 2.46334 5.18475 1.40762 4.2698C2.46334 3.33138 5.27859 1.1261 8 1.1261C10.7214 1.1261 13.5367 3.35484 14.5924 4.2698C13.5367 5.20821 10.7214 7.41349 8 7.41349Z" fill="#7A808A"/>
<path d="M5.98242 4.26967C5.98242 5.39577 6.89738 6.28727 8.00002 6.28727C9.10266 6.28727 10.0176 5.37231 10.0176 4.26967C10.0176 3.16703 9.10266 2.25208 8.00002 2.25208C6.89738 2.25208 5.98242 3.14357 5.98242 4.26967ZM8.89151 4.26967C8.89151 4.76234 8.49269 5.16117 8.00002 5.16117C7.50735 5.16117 7.10852 4.76234 7.10852 4.26967C7.10852 3.777 7.50735 3.37817 8.00002 3.37817C8.49269 3.37817 8.89151 3.777 8.89151 4.26967Z" fill="#7A808A"/>
</svg>
